<svg xmlns="http://www.w3.org/2000/svg" width="20" height="20" viewBox="0 0 20 20" fill="none">
  <path d="M10.0002 7.00098C11.6569 7.00111 13.0002 8.3442 13.0002 10.001C13.0002 11.6577 11.6569 13.0008 10.0002 13.001C8.34334 13.001 7.00019 11.6578 7.00019 10.001C7.00019 8.34412 8.34334 7.00098 10.0002 7.00098Z" fill="#1A1A1A" fill-opacity="0.48"/>
  <path fill-rule="evenodd" clip-rule="evenodd" d="M9.99922 4C14.0366 4 16.4786 6.84635 17.5383 8.45508L17.6457 8.63379C18.1502 9.5407 18.1148 10.6709 17.5383 11.5459C16.478 13.1528 14.0368 16.001 9.99922 16.001C6.21416 16.0006 3.83187 13.4985 2.67597 11.8604L2.46113 11.5459C1.84629 10.6126 1.84629 9.38838 2.46113 8.45508L2.67695 8.13965C3.83341 6.5028 6.21463 4.00033 9.99922 4ZM9.99922 5.5C6.73739 5.50035 4.68982 7.80227 3.71406 9.28125L3.71308 9.28027C3.42825 9.71284 3.42916 10.2882 3.71406 10.7207L3.90937 11.0068C4.94922 12.4784 6.94118 14.5006 9.99922 14.501C13.0576 14.501 15.0491 12.4775 16.09 11.0059L16.2853 10.7197C16.5345 10.3413 16.566 9.85472 16.3791 9.44922L16.2853 9.28027C15.3109 7.80094 13.2614 5.5 9.99922 5.5Z" fill="#1A1A1A" fill-opacity="0.48"/>
</svg>
