<svg xmlns="http://www.w3.org/2000/svg" width="20" height="20" viewBox="0 0 20 20" fill="none">
  <path fill-rule="evenodd" clip-rule="evenodd" d="M2.46994 17.2795C2.61994 17.4295 2.80994 17.4995 2.99994 17.4995C3.18994 17.4995 3.37994 17.4295 3.52994 17.2795L8.93958 11.8698C8.93945 11.8699 8.9397 11.8697 8.93958 11.8698C8.93969 11.8697 8.94018 11.8692 8.94029 11.8691L12.1196 8.68981L17.5299 3.27945C17.8199 2.98945 17.8199 2.50945 17.5299 2.21945C17.2399 1.92945 16.7599 1.92945 16.4699 2.21945L13.9311 4.75829C12.7119 4.08355 11.3904 3.7395 10.0001 3.7395C6.00012 3.7395 3.56012 6.5395 2.46012 8.1995C1.84012 9.1395 1.84012 10.3495 2.46012 11.2895C2.95335 12.0294 3.72366 13.026 4.80437 13.885L2.46994 16.2195C2.17994 16.5095 2.17994 16.9895 2.46994 17.2795ZM5.87294 12.8165L7.41686 11.2725C6.73856 10.123 6.89292 8.61647 7.87994 7.62945C8.86696 6.64243 10.3735 6.48807 11.523 7.16637L12.8154 5.874C11.9289 5.45394 10.9798 5.2395 9.99012 5.2395C6.69012 5.2395 4.64012 7.6095 3.70012 9.0195C3.42012 9.4495 3.42012 10.0295 3.70012 10.4595C4.14308 11.137 4.86517 12.0559 5.87294 12.8165Z" fill="#1A1A1A" fill-opacity="0.48"/>
  <path d="M8.28993 15.5696C8.84993 15.6896 9.41993 15.7496 9.99993 15.7496V15.7596C13.9999 15.7596 16.4399 12.9596 17.5399 11.2996C18.1599 10.3596 18.1599 9.14961 17.5399 8.20961C17.2299 7.72961 16.8799 7.26961 16.4999 6.84961C16.2199 6.53961 15.7499 6.51961 15.4399 6.78961C15.1299 7.06961 15.0999 7.53961 15.3799 7.84961C15.7099 8.21961 16.0199 8.60961 16.2899 9.02961C16.5699 9.45961 16.5699 10.0396 16.2899 10.4696C15.3499 11.8796 13.2999 14.2496 9.99993 14.2496C9.51993 14.2496 9.04993 14.1996 8.59993 14.0996C8.19993 14.0096 7.78993 14.2696 7.70993 14.6796C7.62993 15.0896 7.87993 15.4796 8.28993 15.5696Z" fill="#1A1A1A" fill-opacity="0.48"/>
</svg>

